<svg xmlns="http://www.w3.org/2000/svg">
    <symbol id="google-play" viewBox="0 0 134 40">
        <path fill="#000"
            d="M129.037 40H4.963C2.183 40 0 37.8 0 35V5c0-2.8 2.184-5 4.963-5h124.074C131.816 0 134 2.2 134 5v30c0 2.8-2.184 5-4.963 5Z" />
        <path fill="#A6A6A6" fill-rule="evenodd"
            d="M4.963 0h124.074C131.816 0 134 2.3 134 5v30c0 2.8-2.184 5-4.963 5H4.963C2.183 40 0 37.8 0 35V5c0-2.7 2.184-5 4.963-5Zm128.243 5c0-2.3-1.886-4.2-4.169-4.2H4.963C2.68.8.794 2.7.794 5v30c0 2.3 1.886 4.2 4.169 4.2h124.074c2.283 0 4.169-1.9 4.169-4.2V5Z"
            clip-rule="evenodd" />
        <path fill="#fff" fill-rule="evenodd"
            d="M46.355 12.2c.496-.5.694-1.2.694-2v-.4h-2.878v.8h2.184c0 .5-.199.9-.497 1.2-.496.5-.992.7-1.687.7-.596 0-1.092-.3-1.588-.7-.497-.4-.695-1-.695-1.7s.198-1.3.695-1.7c.397-.5.992-.7 1.588-.7.695 0 1.19.2 1.588.7l.496-.5c-.198-.3-.496-.5-.893-.7-.397-.2-.794-.3-1.191-.3-.893 0-1.588.3-2.184.9-.596.6-.893 1.3-.893 2.2 0 .9.297 1.6.893 2.2.596.6 1.29.9 2.184.9.893 0 1.588-.3 2.184-.9Zm2.58-4.5h2.68V7h-3.474v6h3.474v-.8h-2.68v-1.9h2.482v-.7h-2.482V7.7Zm5.956 5.3h-.794V7.7h-1.688V7h4.17v.7H54.89V13Zm4.566-6v6h.794V7h-.794Zm4.07 6h-.696V7.7h-1.687V7h4.07v.7h-1.688V13Zm7.344.1c.894 0 1.589-.3 2.184-.9.596-.6.894-1.3.894-2.2 0-.9-.298-1.6-.894-2.2-.595-.6-1.29-.9-2.184-.9-.893 0-1.588.3-2.183.9-.596.6-.894 1.3-.894 2.2 0 .9.298 1.6.894 2.2.595.6 1.29.9 2.183.9Zm-1.588-1.4c.397.4.993.7 1.588.7.596 0 1.192-.2 1.589-.7.397-.4.695-1 .695-1.7s-.199-1.3-.695-1.7c-.397-.4-.993-.7-1.588-.7-.596 0-1.192.2-1.589.7-.397.4-.694 1-.694 1.7s.198 1.3.694 1.7ZM75.04 7v6h.695V8.1l3.077 4.9h.794V7h-.794v4.7L75.934 7h-.894ZM47.347 23.1v1.8h4.268c-.1 1-.496 1.8-.992 2.3-.596.6-1.589 1.3-3.276 1.3-2.68 0-4.665-2.1-4.665-4.8 0-2.7 2.084-4.8 4.665-4.8 1.39 0 2.481.6 3.276 1.3l1.29-1.3c-1.092-1-2.481-1.8-4.467-1.8-3.573 0-6.65 3-6.65 6.6 0 3.6 3.077 6.6 6.65 6.6 1.986 0 3.375-.6 4.566-1.9 1.191-1.2 1.588-2.9 1.588-4.2 0-.4 0-.8-.099-1.1h-6.154Zm11.018-1.3c-2.382 0-4.268 1.8-4.268 4.3 0 2.4 1.886 4.3 4.268 4.3 2.382 0 4.268-1.8 4.268-4.3 0-2.6-1.886-4.3-4.268-4.3Zm4.963 4.3c0-2.5 1.886-4.3 4.268-4.3 2.382 0 4.268 1.7 4.268 4.3 0 2.5-1.886 4.3-4.268 4.3-2.382 0-4.268-1.9-4.268-4.3Zm1.886-.1c0 1.5 1.091 2.6 2.382 2.6 1.29 0 2.382-1.1 2.382-2.6 0-1.6-1.092-2.6-2.382-2.6s-2.382 1.1-2.382 2.6Zm-9.231 0c0 1.5 1.091 2.6 2.382 2.6 1.29 0 2.382-1.1 2.382-2.6 0-1.6-1.092-2.6-2.382-2.6s-2.382 1.1-2.382 2.6Zm32.854-4.2c2.184 0 3.177 1.7 3.574 2.7l.198.5-5.657 2.4c.496.9 1.091 1.3 2.084 1.3.992 0 1.588-.5 2.084-1.2l1.39 1c-.397.7-1.588 1.9-3.474 1.9-2.382 0-4.169-1.9-4.169-4.3 0-2.6 1.787-4.3 3.97-4.3Zm-2.183 4.1c0-1.6 1.29-2.5 2.183-2.5.695 0 1.39.4 1.588.9l-3.771 1.6Zm-2.78 4.1H81.99V17.5h1.885V30Zm-4.863-7.3c-.497-.5-1.29-1-2.283-1-2.085 0-4.07 1.9-4.07 4.3s1.886 4.2 4.07 4.2c.992 0 1.786-.5 2.184-1h.099v.6c0 1.6-.894 2.5-2.283 2.5-1.092 0-1.886-.8-2.085-1.5l-1.588.7c.496 1.1 1.688 2.5 3.772 2.5 2.184 0 3.97-1.3 3.97-4.4V22h-1.786v.7ZM74.445 26c0 1.5 1.092 2.6 2.382 2.6s2.283-1.1 2.283-2.6-.993-2.6-2.283-2.6-2.382 1.1-2.382 2.6Zm26.601-8.5H96.58V30h1.886v-4.7h2.58c2.085 0 4.07-1.5 4.07-3.9s-1.985-3.9-4.07-3.9Zm-2.58 6h2.68c1.29 0 2.084-1.1 2.183-2.2 0-.9-.794-2.1-2.183-2.1h-2.68v4.3Zm14.094-1.8c-1.389 0-2.779.6-3.275 1.9l1.687.7c.397-.7.993-.9 1.688-.9.992 0 1.886.6 1.985 1.6v.1c-.298-.2-1.092-.5-1.886-.5-1.787 0-3.573 1-3.573 2.8 0 1.7 1.488 2.8 3.077 2.8 1.29 0 1.885-.6 2.382-1.2h.099v1h1.787v-4.8c-.199-2.2-1.886-3.5-3.971-3.5Zm-1.687 5.8c0 .8.893 1.1 1.489 1.1.992 0 1.985-.8 2.184-2a8.98 8.98 0 0 1-.148-.06c-.433-.179-.826-.34-1.54-.34-.893 0-1.985.3-1.985 1.3Zm11.911-5.5-2.084 5.4h-.1l-2.183-5.4h-1.986l3.276 7.6-1.886 4.2h1.886l5.062-11.8h-1.985Zm-14.79 8h-1.886V17.5h1.886V30Z"
            clip-rule="evenodd" />
        <path fill="url(#a)"
            d="M10.323 7.5c-.298.3-.397.8-.397 1.4V31c0 .6.198 1.1.496 1.4l.1.1 12.307-12.4v-.2L10.323 7.5Z" />
        <path fill="url(#b)" d="m26.8 24.299-4.07-4.1v-.3l4.07-4.1.1.1 4.863 2.8c1.39.8 1.39 2.1 0 2.9l-4.963 2.7Z" />
        <path fill="url(#c)" d="M26.9 24.2 22.73 20 10.324 32.5c.496.5 1.191.5 2.085.1L26.9 24.2Z" />
        <path fill="url(#d)" d="m26.9 15.799-14.492-8.3c-.894-.5-1.588-.4-2.085.1l12.408 12.4 4.168-4.2Z" />
        <path fill="#000" d="m26.8 24.1-14.392 8.2c-.794.5-1.49.4-1.986 0l-.099.1.1.1c.496.4 1.19.5 1.985 0L26.8 24.1Z"
            opacity=".2" />
        <path fill="#000" fill-rule="evenodd"
            d="m26.8 24.1 4.963-2.8c.595-.4.992-.8.992-1.3 0 .5-.297 1-.992 1.4l-4.864 2.8-.1-.1ZM9.944 31.307c.04.418.151.764.379.993h.01c.028.035.058.069.09.1v-.1h-.09c-.2-.245-.341-.589-.39-.993Zm0 0a4.286 4.286 0 0 1-.018-.407v.1c0 .106.006.208.018.307Z"
            clip-rule="evenodd" opacity=".12" />
        <path fill="#fff"
            d="m12.407 7.6 19.356 11.1c.595.4.992.8.992 1.3 0-.5-.297-1-.992-1.4L12.407 7.5c-1.39-.8-2.481-.2-2.481 1.4V9c0-1.5 1.092-2.2 2.481-1.4Z"
            opacity=".25" />
        <defs>
            <linearGradient id="a" x1="17.307" x2="-2.433" y1="-7.428" y2="-2.129" gradientUnits="userSpaceOnUse">
                <stop stop-color="#00A0FF" />
                <stop offset=".007" stop-color="#00A1FF" />
                <stop offset=".26" stop-color="#00BEFF" />
                <stop offset=".512" stop-color="#00D2FF" />
                <stop offset=".76" stop-color="#00DFFF" />
                <stop offset="1" stop-color="#00E3FF" />
            </linearGradient>
            <linearGradient id="b" x1="33.584" x2="9.566" y1="9.868" y2="9.868" gradientUnits="userSpaceOnUse">
                <stop stop-color="#FFE000" />
                <stop offset=".409" stop-color="#FFBD00" />
                <stop offset=".775" stop-color="orange" />
                <stop offset="1" stop-color="#FF9C00" />
            </linearGradient>
            <linearGradient id="c" x1="10.008" x2="-6.013" y1="13.514" y2="40.213" gradientUnits="userSpaceOnUse">
                <stop stop-color="#FF3A44" />
                <stop offset="1" stop-color="#C31162" />
            </linearGradient>
            <linearGradient id="d" x1=".677" x2="7.776" y1="4.078" y2="16.018" gradientUnits="userSpaceOnUse">
                <stop stop-color="#32A071" />
                <stop offset=".069" stop-color="#2DA771" />
                <stop offset=".476" stop-color="#15CF74" />
                <stop offset=".801" stop-color="#06E775" />
                <stop offset="1" stop-color="#00F076" />
            </linearGradient>
        </defs>
    </symbol>
</svg>