<svg xmlns="http://www.w3.org/2000/svg">
    <symbol id="app-store" viewBox="0 0 134 40">
        <path fill="#A6A6A6"
            d="M129.303 40H4.696C2.106 40 .005 37.887 0 35.278V4.728C.004 2.116 2.105.001 4.696 0h124.607c2.591.003 4.691 2.118 4.696 4.728v30.55c.002 2.605-2.108 4.722-4.695 4.722h-.001Z" />
        <path fill="#000"
            d="M133.111 35.278a3.846 3.846 0 0 1-1.115 2.71 3.792 3.792 0 0 1-2.693 1.121H4.696c-2.103.002-3.81-1.713-3.812-3.83V4.726C.887 2.607 2.592.89 4.696.89h124.606c1.01 0 1.979.404 2.693 1.123a3.847 3.847 0 0 1 1.115 2.713l.001 30.55Z" />
        <path fill="#fff"
            d="M28.04 6.219c.165 1.509-.429 2.997-1.297 4.09-.906 1.076-2.355 1.9-3.766 1.793-.184-1.452.53-2.997 1.33-3.939.906-1.07 2.477-1.888 3.733-1.944Zm4.62 8.707c-.158.095-2.767 1.664-2.739 4.864.034 3.863 3.357 5.14 3.397 5.155-.02.09-.52 1.844-1.767 3.624-1.041 1.567-2.131 3.1-3.863 3.128-.824.019-1.38-.22-1.96-.468-.604-.259-1.233-.528-2.219-.528-1.044 0-1.701.278-2.335.547-.549.232-1.08.457-1.829.488-1.65.06-2.91-1.673-3.988-3.227-2.156-3.172-3.835-8.939-1.584-12.863 1.09-1.924 3.079-3.164 5.204-3.197.936-.019 1.833.344 2.62.663.602.243 1.139.46 1.579.46.386 0 .908-.208 1.516-.451.959-.383 2.132-.852 3.327-.726.818.024 3.144.325 4.644 2.529l-.003.002Z" />
        <path fill="#fff" fill-rule="evenodd"
            d="M70.602 13.437H69.56V6.555h1.042v6.882Zm-25.701.058c-.59 0-1.099-.03-1.523-.078V6.98a11.446 11.446 0 0 1 1.792-.136c2.429 0 3.547 1.203 3.547 3.165 0 2.262-1.32 3.485-3.816 3.485Zm41.36 17.05c.78-.712 1.174-1.633 1.174-2.766 0-.92-.268-1.69-.807-2.31-.536-.617-1.372-1.155-2.51-1.618-.927-.368-1.569-.71-1.92-1.026a1.634 1.634 0 0 1-.61-1.303c0-.476.18-.877.532-1.207.42-.368 1.005-.553 1.752-.553.945 0 1.79.204 2.54.612l.53-1.738c-.795-.421-1.797-.632-3-.632-1.346 0-2.429.349-3.245 1.047-.817.7-1.226 1.593-1.226 2.686 0 1.672 1.158 2.944 3.472 3.813.851.315 1.457.658 1.823 1.026.365.37.55.822.55 1.364 0 .604-.223 1.088-.668 1.45-.442.361-1.063.543-1.862.543-1.11 0-2.13-.276-3.059-.83l-.49 1.777c.86.554 2.001.83 3.423.83 1.54 0 2.74-.39 3.6-1.166Zm-32.965.967h-2.255l-1.235-3.91H45.51l-1.177 3.91H42.14l4.255-13.311h2.628l4.274 13.311Zm-3.863-5.55-1.117-3.476c-.118-.355-.34-1.191-.666-2.508h-.04c-.131.567-.34 1.403-.628 2.508l-1.098 3.476h3.55Zm13.465 4.503c.88-.947 1.32-2.237 1.32-3.87 0-1.461-.376-2.64-1.125-3.537-.751-.895-1.69-1.342-2.814-1.342-1.438 0-2.51.573-3.216 1.72h-.04l-.117-1.522h-1.863a66.04 66.04 0 0 1 .079 3.155v10.336h2.117v-5.037c.551.908 1.46 1.362 2.721 1.362 1.17 0 2.15-.422 2.938-1.265Zm-.836-3.792c0-.934-.209-1.704-.628-2.311-.458-.632-1.073-.948-1.843-.948-.523 0-.997.176-1.421.523a2.43 2.43 0 0 0-.834 1.374c-.058.212-.09.43-.098.65v1.6c0 .698.213 1.287.638 1.769.425.48.977.721 1.656.721.798 0 1.419-.31 1.863-.928.444-.62.667-1.436.667-2.45Zm11.797 3.792c.881-.947 1.321-2.237 1.321-3.87 0-1.461-.377-2.64-1.126-3.537-.753-.895-1.692-1.342-2.815-1.342-1.439 0-2.51.573-3.216 1.72h-.04l-.117-1.522h-1.862a66.04 66.04 0 0 1 .078 3.155v10.336h2.117v-5.037c.552.908 1.46 1.362 2.721 1.362 1.17 0 2.15-.422 2.94-1.265Zm-.837-3.792c0-.934-.21-1.704-.629-2.311-.458-.632-1.07-.948-1.841-.948-.523 0-.997.176-1.423.523-.425.35-.703.808-.832 1.374a2.87 2.87 0 0 0-.1.65v1.6c0 .698.214 1.287.637 1.769.425.48.977.721 1.658.721.799 0 1.42-.31 1.862-.928.445-.62.668-1.436.668-2.45Zm21.431-3.159H92.12v4.66c0 1.186.41 1.777 1.235 1.777.379 0 .692-.032.94-.099l.06 1.62c-.418.157-.967.236-1.647.236-.837 0-1.49-.257-1.962-.772-.47-.514-.706-1.375-.706-2.587V23.51h-1.39v-1.6h1.39v-1.758l2.08-.632v2.39h2.334v1.604Zm9.255 6.754c.836-.947 1.255-2.159 1.255-3.634 0-1.436-.404-2.607-1.217-3.513-.85-.934-1.973-1.402-3.371-1.402-1.451 0-2.605.474-3.462 1.422-.855.947-1.284 2.166-1.284 3.653 0 1.422.415 2.6 1.245 3.535.83.933 1.943 1.4 3.344 1.4 1.451 0 2.615-.486 3.49-1.46Zm-.94-3.585c0-.88-.188-1.633-.567-2.264-.444-.763-1.079-1.144-1.903-1.144-.848 0-1.499.381-1.941 1.144-.38.63-.569 1.398-.569 2.304 0 .88.19 1.637.569 2.266.457.762 1.096 1.143 1.923 1.143.81 0 1.445-.389 1.903-1.162.39-.646.585-1.405.585-2.287Zm8.413-2.953c.224 0 .447.02.667.06l-.002-2.035a3.37 3.37 0 0 0-.529-.04c-.552.002-1.089.182-1.53.515-.483.381-.835.89-1.059 1.521h-.059l-.077-1.836h-1.844c.042 1.007.063 2.014.061 3.022v6.576h2.117v-5.037c0-.763.177-1.395.529-1.895.405-.569.981-.85 1.726-.85Zm10.137 2.53c.005.323-.021.647-.078.966h-6.352c.024.949.332 1.675.922 2.175.535.446 1.227.67 2.077.67.941 0 1.799-.15 2.571-.453l.331 1.48c-.901.396-1.966.593-3.194.593-1.478 0-2.638-.439-3.482-1.313-.843-.875-1.265-2.051-1.265-3.525 0-1.446.393-2.651 1.178-3.613.823-1.026 1.934-1.54 3.332-1.54 1.374 0 2.413.514 3.12 1.54.559.813.84 1.822.84 3.02Zm-2.43-2.194c.287.462.425 1.007.411 1.64l-4.41-.002c.065-.643.274-1.197.627-1.659.429-.58.993-.869 1.685-.869.756 0 1.32.296 1.687.89ZM44.418 7.738c.231-.048.51-.068.838-.068 1.542 0 2.362.845 2.362 2.369 0 1.708-.906 2.62-2.497 2.62-.338 0-.578-.009-.703-.029V7.738Zm7.784 5.806c-1.368 0-2.256-1.03-2.256-2.427 0-1.456.906-2.495 2.334-2.495 1.348 0 2.255.98 2.255 2.418 0 1.474-.935 2.504-2.333 2.504Zm-1.194-2.457c0-.99.482-1.698 1.234-1.698.732 0 1.213.718 1.213 1.678 0 .942-.492 1.7-1.223 1.7-.732 0-1.224-.709-1.224-1.68Zm11.33-2.368-1.464 4.718h-.955l-.606-2.049c-.151-.5-.277-1.01-.377-1.523h-.02c-.076.514-.22 1.029-.375 1.523l-.645 2.049h-.965l-1.378-4.718h1.07l.53 2.243c.125.534.23 1.038.318 1.514h.02c.076-.397.2-.893.385-1.504l.665-2.252h.848l.637 2.204c.147.512.273 1.03.376 1.553h.028c.068-.485.174-1 .318-1.553l.569-2.204h1.022Zm4.353 4.718h1.04l.001-2.825c0-1.233-.645-1.99-1.628-1.99-.637 0-1.205.32-1.485.824h-.029l-.049-.728h-.915c.029.485.038.932.038 1.35v3.369h1.041V10.63c0-.621.425-1.156 1.041-1.156.627 0 .945.419.945 1.253v2.709Zm5.45-2.32c0 1.397.888 2.427 2.255 2.427 1.398 0 2.333-1.03 2.332-2.504 0-1.437-.905-2.418-2.255-2.418-1.427 0-2.332 1.039-2.332 2.495Zm2.294-1.728c-.752 0-1.233.708-1.233 1.698 0 .971.492 1.68 1.222 1.68.733 0 1.224-.758 1.224-1.7 0-.96-.48-1.679-1.213-1.679Zm6.322 3.504.075.544h.938a7.189 7.189 0 0 1-.067-1.126v-1.737c0-1.302-.618-1.952-1.841-1.952-.635 0-1.175.136-1.608.408l.211.69a2.18 2.18 0 0 1 1.224-.35c.645 0 .972.31.972.932v.087c-1.735 0-2.737.602-2.737 1.766 0 .796.596 1.388 1.435 1.388.588 0 1.052-.212 1.37-.65h.028Zm-.068-1.806c-1.156 0-1.736.282-1.736.951 0 .495.299.737.714.737.53 0 1.022-.407 1.022-.96v-.728Zm6.02 1.592.048.758h.926a18.042 18.042 0 0 1-.038-1.272v-5.61h-1.042v2.707h-.021c-.25-.428-.694-.64-1.32-.64-1.185 0-2.052 1.039-2.052 2.514 0 1.407.837 2.408 1.966 2.408.702 0 1.204-.292 1.504-.865h.028Zm-.106-2.018c0-.66-.434-1.224-1.096-1.224-.772 0-1.244.69-1.244 1.66 0 .951.49 1.602 1.223 1.602.654 0 1.117-.573 1.117-1.252v-.786Zm5.393.456c0 1.397.886 2.426 2.254 2.426 1.4 0 2.334-1.029 2.333-2.503 0-1.437-.906-2.418-2.255-2.418-1.427 0-2.332 1.039-2.332 2.495Zm2.293-1.729c-.751 0-1.233.709-1.233 1.699 0 .971.492 1.68 1.223 1.68.733 0 1.223-.758 1.223-1.7.002-.96-.48-1.679-1.213-1.679Zm6.849 4.049h1.042V10.61c0-1.233-.646-1.99-1.629-1.99-.636 0-1.205.321-1.484.825h-.03l-.048-.728h-.916c.03.485.04.932.04 1.35v3.369h1.041V10.63c0-.621.423-1.156 1.04-1.156.627 0 .944.419.944 1.253v2.709Zm8.045-3.932h-1.145v2.291c0 .583.2.874.605.874.184 0 .338-.02.462-.049l.029.797c-.202.078-.472.117-.807.117-.821 0-1.311-.457-1.311-1.65v-2.38h-.684V8.72h.684v-.864l1.022-.311v1.174h1.145v.787Zm4.47 3.932h1.039V10.63c0-1.234-.605-2.01-1.596-2.01-.606 0-1.081.253-1.409.767h-.02V6.555h-1.04v6.882h1.04v-2.844c0-.747.502-1.117 1.041-1.117.628 0 .945.428.945 1.272v2.689Zm6.685-2.107h-3.124c.02.893.607 1.397 1.476 1.397.462 0 .887-.078 1.262-.223l.162.729c-.443.194-.964.29-1.571.29-1.465 0-2.332-.932-2.332-2.377 0-1.446.888-2.534 2.215-2.534 1.196 0 1.947.893 1.947 2.243.007.159-.005.319-.035.475Zm-1.985-1.99c.665 0 1.03.515 1.03 1.243h-2.168c.068-.718.54-1.243 1.138-1.243Z"
            clip-rule="evenodd" />
    </symbol>
</svg>